<svg width="38" height="28" viewBox="0 0 38 28" fill="none" xmlns="http://www.w3.org/2000/svg">
    <path d="M12.9563 24.418L12.9565 24.4178L12.9576 24.4164L12.9599 24.4134L15.9329 20.6117L15.9331 20.6115C16.3389 20.0927 16.8557 19.6709 17.447 19.3799L18.0574 20.6203L17.447 19.3799C18.0386 19.0888 18.6884 18.9368 19.3479 18.9368C20.0075 18.9368 20.6572 19.0888 21.2488 19.3799L20.6385 20.6203L21.2488 19.3799C21.8402 19.671 22.357 20.0929 22.7628 20.6116L22.763 20.6118L25.736 24.4134L25.7384 24.4165L25.7396 24.4181L25.7397 24.4182C26.2374 25.0582 26.8666 25.5723 27.5788 25.9251L26.9131 27.2692L27.5788 25.9251C28.2911 26.2779 29.0697 26.461 29.8572 26.4627C29.8574 26.4627 29.8576 26.4627 29.8578 26.4627M12.9563 24.418L29.8567 26.7553V26.9865M12.9563 24.418C12.4585 25.0582 11.8293 25.5723 11.117 25.9251C10.4047 26.2779 9.6262 26.461 8.83863 26.4627C8.83844 26.4627 8.83825 26.4627 8.83806 26.4627L8.83668 26.4627L6.79144 26.4627C5.65561 26.4627 4.55838 26.0003 3.74334 25.1643C2.92705 24.3271 2.46191 23.1837 2.46191 21.9837V5.14264C2.46191 4.2054 2.82528 3.31394 3.46044 2.6625C4.09434 2.01235 4.94589 1.6543 5.82555 1.6543H32.8703C33.75 1.6543 34.6015 2.01235 35.2354 2.6625C35.8706 3.31395 36.2339 4.2054 36.2339 5.14264V21.9837C36.2339 23.1837 35.7688 24.3271 34.9525 25.1643C34.1375 26.0003 33.0403 26.4627 31.9044 26.4627L29.8592 26.4627M12.9563 24.418L29.8592 26.4627M29.8578 26.4627L29.8567 26.9865M29.8578 26.4627L29.8592 26.4627M29.8578 26.4627L29.8592 26.4627M29.8567 26.9865V27.9621L29.8592 26.4627M29.8567 26.9865L29.8592 26.4627" stroke="#175CD3" stroke-width="3" stroke-linecap="round" stroke-linejoin="round"/>
    <path fill-rule="evenodd" clip-rule="evenodd" d="M11.607 9C10.6172 9 9.66794 9.40327 8.96806 10.1211C8.26819 10.8389 7.875 11.8125 7.875 12.8276C7.875 13.8428 8.26819 14.8164 8.96806 15.5342C9.66794 16.252 10.6172 16.6553 11.607 16.6553C12.5967 16.6553 13.546 16.252 14.2458 15.5342C14.9457 14.8164 15.3389 13.8428 15.3389 12.8276C15.3389 11.8125 14.9457 10.8389 14.2458 10.1211C13.546 9.40327 12.5967 9 11.607 9ZM27.061 9C26.0712 9 25.122 9.40327 24.4221 10.1211C23.7222 10.8389 23.329 11.8125 23.329 12.8276C23.329 13.8428 23.7222 14.8164 24.4221 15.5342C25.122 16.252 26.0712 16.6553 27.061 16.6553C28.0508 16.6553 29 16.252 29.6999 15.5342C30.3998 14.8164 30.7929 13.8428 30.7929 12.8276C30.7929 11.8125 30.3998 10.8389 29.6999 10.1211C29 9.40327 28.0508 9 27.061 9Z" fill="#175CD3"/>
</svg>
