<svg width="38" height="28" viewBox="0 0 38 28" fill="none" xmlns="http://www.w3.org/2000/svg">
    <path d="M12.7903 24.418L12.7905 24.4178L12.7915 24.4164L12.7939 24.4134L15.7669 20.6117L15.7671 20.6115C16.1729 20.0927 16.6897 19.6709 17.281 19.3799L17.8914 20.6203L17.281 19.3799C17.8726 19.0888 18.5224 18.9368 19.1819 18.9368C19.8415 18.9368 20.4912 19.0888 21.0828 19.3799L20.4725 20.6203L21.0828 19.3799C21.6742 19.671 22.191 20.0929 22.5968 20.6116L22.597 20.6118L25.5699 24.4134L25.5724 24.4165L25.5736 24.4181L25.5736 24.4182C26.0714 25.0582 26.7006 25.5723 27.4128 25.9251L26.747 27.2692L27.4128 25.9251C28.1251 26.2779 28.9036 26.461 29.6912 26.4627C29.6914 26.4627 29.6916 26.4627 29.6918 26.4627M12.7903 24.418L29.6907 26.7553V26.9865M12.7903 24.418C12.2925 25.0582 11.6633 25.5723 10.951 25.9251C10.2387 26.2779 9.46018 26.461 8.67262 26.4627C8.67243 26.4627 8.67223 26.4627 8.67204 26.4627L8.67066 26.4627L6.62542 26.4627C5.48959 26.4627 4.39236 26.0003 3.57733 25.1643C2.76103 24.3271 2.2959 23.1837 2.2959 21.9837V5.14264C2.2959 4.2054 2.65927 3.31394 3.29443 2.6625C3.92833 2.01235 4.77987 1.6543 5.65954 1.6543H32.7043C33.584 1.6543 34.4355 2.01235 35.0694 2.6625C35.7046 3.31395 36.0679 4.2054 36.0679 5.14264V21.9837C36.0679 23.1837 35.6028 24.3271 34.7865 25.1643C33.9715 26.0003 32.8742 26.4627 31.7384 26.4627L29.6932 26.4627M12.7903 24.418L29.6932 26.4627M29.6918 26.4627L29.6907 26.9865M29.6918 26.4627L29.6932 26.4627M29.6918 26.4627L29.6932 26.4627M29.6907 26.9865V27.9621L29.6932 26.4627M29.6907 26.9865L29.6932 26.4627" stroke="#B9C0D4" stroke-width="3" stroke-linecap="round" stroke-linejoin="round"/>
    <path fill-rule="evenodd" clip-rule="evenodd" d="M11.44 9C10.4502 9 9.50095 9.40327 8.80107 10.1211C8.1012 10.8389 7.70801 11.8125 7.70801 12.8276C7.70801 13.8428 8.1012 14.8164 8.80107 15.5342C9.50095 16.252 10.4502 16.6553 11.44 16.6553C12.4297 16.6553 13.379 16.252 14.0788 15.5342C14.7787 14.8164 15.1719 13.8428 15.1719 12.8276C15.1719 11.8125 14.7787 10.8389 14.0788 10.1211C13.379 9.40327 12.4297 9 11.44 9ZM26.894 9C25.9042 9 24.955 9.40327 24.2551 10.1211C23.5552 10.8389 23.1621 11.8125 23.1621 12.8276C23.1621 13.8428 23.5552 14.8164 24.2551 15.5342C24.955 16.252 25.9042 16.6553 26.894 16.6553C27.8838 16.6553 28.833 16.252 29.5329 15.5342C30.2328 14.8164 30.626 13.8428 30.626 12.8276C30.626 11.8125 30.2328 10.8389 29.5329 10.1211C28.833 9.40327 27.8838 9 26.894 9Z" fill="#B9C0D4"/>
</svg>
