<svg width="29" height="30" viewBox="0 0 29 30" fill="none" xmlns="http://www.w3.org/2000/svg">
    <path d="M20.5029 5.08854C21.5477 4.0122 21.5472 4.0117 21.5467 4.0112L21.5456 4.01015L21.5433 4.00793L21.5381 4.00293L21.5253 3.99082C21.5157 3.98182 21.5041 3.97098 21.4903 3.95842C21.4628 3.93331 21.4268 3.90132 21.3825 3.86346C21.2939 3.78778 21.1714 3.68842 21.0154 3.57361C20.7037 3.3442 20.2558 3.05153 19.674 2.76299C18.5066 2.18394 16.8062 1.625 14.6084 1.625C12.4107 1.625 10.7103 2.1838 9.54287 2.76272C8.96113 3.0512 8.51323 3.3438 8.20149 3.57317C8.04548 3.68795 7.92303 3.78729 7.8344 3.86296C7.79006 3.90081 7.75412 3.93279 7.7266 3.9579C7.71284 3.97045 7.70117 3.98129 7.69161 3.99029L7.67884 4.0024L7.67364 4.00739L7.67134 4.00962L7.67026 4.01066C7.66974 4.01117 7.66923 4.01166 8.71385 5.08812M20.5029 5.08854L25.5746 8.13071C26.5305 9.21179 26.8531 10.3023 26.6958 11.2858C26.6227 11.7423 26.4562 12.101 26.3012 12.3519C26.2236 12.4776 26.1471 12.5792 26.0828 12.6564C26.0505 12.6952 26.0208 12.7284 25.995 12.756C25.9821 12.7698 25.9701 12.7822 25.9591 12.7933L25.9435 12.8089L25.9367 12.8156L25.9366 12.8157L25.9364 12.8159L25.9363 12.816L25.9357 12.8165L25.9335 12.8187L25.9328 12.8193L25.9311 12.821L25.9255 12.8265L25.8963 12.8548C25.8713 12.879 25.8355 12.9136 25.7911 12.9562C25.7025 13.0413 25.579 13.1591 25.4393 13.2899C25.1703 13.5417 24.8049 13.8764 24.5126 14.1112L24.5124 14.1113C23.6618 14.7946 22.7367 14.7103 22.1445 14.4884C21.8677 14.3847 21.6501 14.2506 21.5061 14.149C21.4317 14.0965 21.3705 14.048 21.3237 14.0088C21.3002 13.9891 21.2799 13.9714 21.2631 13.9563L21.2403 13.9355L21.2307 13.9266L21.2264 13.9225L21.2244 13.9206L21.2234 13.9197C21.2229 13.9192 21.2225 13.9187 22.2573 12.8329M20.5029 5.08854L21.5487 4.01319L21.5477 4.0122L20.5029 5.08854ZM20.5029 5.08854L21.5488 4.01326M20.5029 5.08854L21.5488 4.01326M8.71385 5.08812L7.66923 4.01166L7.668 4.01286L8.71385 5.08812ZM8.71385 5.08812L7.66793 4.01292L7.6678 4.01305L7.66735 4.01349L7.66571 4.01508L7.65955 4.02108L7.63594 4.04408L7.54634 4.13158C7.46879 4.20739 7.35692 4.31697 7.21893 4.45273C6.94309 4.72412 6.56217 5.10078 6.14196 5.52186C5.31072 6.35481 4.29421 7.39286 3.64233 8.13012L3.64226 8.1302C2.68628 9.21154 2.36367 10.3022 2.52104 11.2857C2.59408 11.7423 2.76057 12.101 2.91557 12.3519C2.9932 12.4776 3.06967 12.5792 3.13399 12.6564C3.16629 12.6952 3.19596 12.7284 3.22178 12.756C3.2347 12.7698 3.24672 12.7822 3.25767 12.7933L3.27332 12.8089L3.28011 12.8156L3.28019 12.8157L3.28041 12.8159L3.28053 12.816L3.28109 12.8165L3.28332 12.8187L3.28397 12.8193L3.28566 12.821L3.29129 12.8265L3.32043 12.8547C3.34543 12.8789 3.38128 12.9136 3.42566 12.9562C3.51425 13.0413 3.63771 13.159 3.77736 13.2898C4.04627 13.5416 4.41145 13.8761 4.70327 14.1108L4.70392 14.1113C5.5546 14.7946 6.47965 14.7103 7.07186 14.4884C7.34869 14.3847 7.56626 14.2506 7.71026 14.149C7.78464 14.0965 7.84591 14.048 7.89264 14.0088C7.91616 13.9891 7.93643 13.9714 7.95327 13.9563L7.97609 13.9355L7.98563 13.9266L7.98993 13.9225L7.99197 13.9206L7.99295 13.9197C7.99344 13.9192 7.99392 13.9187 6.95904 12.8329M6.95904 12.8329L7.99392 13.9187L8.00441 13.9087L8.0147 13.8986L6.95904 12.8329ZM6.95904 12.8329L8.01471 13.8985L8.01474 13.8985L8.01483 13.8984L8.01516 13.8981L8.01647 13.8968L8.02156 13.8918L8.0414 13.8721L8.11753 13.7966L8.34487 13.5709C8.54047 13.8354 8.70067 14.1321 8.82966 14.4375C8.96237 14.7517 9.04713 15.0408 9.09789 15.2487C9.12301 15.3517 9.13908 15.4317 9.14823 15.4814C9.15132 15.4982 9.15359 15.5114 9.15514 15.5207L9.15777 15.5451L9.17566 15.7121C9.19122 15.8578 9.21376 16.0699 9.24163 16.3351C9.29738 16.8655 9.3744 17.6079 9.45947 18.4551C9.62991 20.1528 9.83145 22.2598 9.95926 23.927L9.95927 23.9271C10.1202 26.0235 11.1304 27.2702 12.3432 27.8852C13.3052 28.3731 14.2425 28.3868 14.6074 28.3715C14.9741 28.3871 15.9112 28.3732 16.873 27.8853C18.0858 27.2702 19.0958 26.0233 19.2567 23.9271L19.2567 23.927C19.3835 22.2731 19.6132 20.1766 19.8132 18.4808C19.9129 17.6356 20.0045 16.895 20.0712 16.3659C20.1046 16.1014 20.1317 15.8899 20.1504 15.7447L20.1719 15.5785L20.1775 15.5359L20.1789 15.5253L20.1792 15.5227L20.1793 15.5221L20.1793 15.522L20.1832 15.4923L20.1853 15.4696C20.1854 15.4689 20.1855 15.468 20.1856 15.467C20.1865 15.4594 20.1884 15.443 20.1918 15.4188C20.1986 15.3704 20.211 15.2918 20.2315 15.1906C20.2729 14.9859 20.3448 14.7018 20.4636 14.3937C20.5738 14.108 20.7123 13.8315 20.884 13.5833L21.0988 13.7966L21.175 13.8721L21.1948 13.8918L21.1999 13.8968L21.2012 13.8981L21.2015 13.8984L21.2016 13.8985L21.2017 13.8985L22.2573 12.8329M22.2573 12.8329L21.2017 13.8986L21.212 13.9087L21.2225 13.9187L22.2573 12.8329ZM23.0748 5.52209C23.906 6.3549 24.9224 7.39291 25.5744 8.13048L23.0748 5.52209ZM23.0748 5.52209C22.6546 5.10103 22.2736 4.72439 21.9978 4.45303M23.0748 5.52209L21.9978 4.45303M21.9978 4.45303C21.8598 4.31728 21.7479 4.20771 21.6704 4.1319M21.9978 4.45303L21.6704 4.1319M21.6704 4.1319L21.5808 4.04442M21.6704 4.1319L21.5808 4.04442M21.5808 4.04442L21.5572 4.02142M21.5808 4.04442L21.5572 4.02142M21.5572 4.02142L21.551 4.01542M21.5572 4.02142L21.551 4.01542M21.551 4.01542L21.5494 4.01383M21.551 4.01542L21.5494 4.01383M21.5494 4.01383L21.5489 4.01339M21.5494 4.01383L21.5489 4.01339M21.5489 4.01339L21.5488 4.01326M21.5489 4.01339L21.5488 4.01326M14.6079 7.29919C13.3691 7.28465 12.3792 7.0831 11.7284 6.83052C12.3487 6.5907 13.2947 6.39749 14.5066 6.38309C15.7551 6.39774 16.7213 6.6023 17.3399 6.85208C16.7513 7.0887 15.829 7.28468 14.6079 7.29919Z" stroke="#B9C0D4" stroke-width="3"/>
</svg>
