<svg width="28" height="30" viewBox="0 0 28 30" fill="none" xmlns="http://www.w3.org/2000/svg">
    <path d="M19.6699 5.08854C20.7147 4.0122 20.7142 4.0117 20.7136 4.0112L20.7126 4.01015L20.7103 4.00793L20.7051 4.00293L20.6923 3.99082C20.6827 3.98182 20.6711 3.97098 20.6573 3.95842C20.6298 3.93331 20.5938 3.90132 20.5495 3.86346C20.4609 3.78778 20.3384 3.68842 20.1824 3.57361C19.8707 3.3442 19.4228 3.05153 18.841 2.76299C17.6736 2.18394 15.9732 1.625 13.7754 1.625C11.5777 1.625 9.87728 2.1838 8.70986 2.76272C8.12812 3.0512 7.68023 3.3438 7.36848 3.57317C7.21247 3.68795 7.09002 3.78729 7.00139 3.86296C6.95706 3.90081 6.92111 3.93279 6.89359 3.9579C6.87983 3.97045 6.86817 3.98129 6.85861 3.99029L6.84584 4.0024L6.84063 4.00739L6.83833 4.00962L6.83725 4.01066C6.83673 4.01117 6.83622 4.01166 7.88084 5.08812M19.6699 5.08854L24.7416 8.13071C25.6975 9.21179 26.0201 10.3023 25.8627 11.2858C25.7897 11.7423 25.6232 12.101 25.4682 12.3519C25.3906 12.4776 25.3141 12.5792 25.2498 12.6564C25.2175 12.6952 25.1878 12.7284 25.162 12.756C25.1491 12.7698 25.1371 12.7822 25.1261 12.7933L25.1105 12.8089L25.1037 12.8156L25.1036 12.8157L25.1034 12.8159L25.1033 12.816L25.1027 12.8165L25.1005 12.8187L25.0998 12.8193L25.0981 12.821L25.0925 12.8265L25.0633 12.8548C25.0383 12.879 25.0025 12.9136 24.9581 12.9562C24.8695 13.0413 24.746 13.1591 24.6063 13.2899C24.3373 13.5417 23.9718 13.8764 23.6796 14.1112L23.6794 14.1113C22.8288 14.7946 21.9037 14.7103 21.3115 14.4884C21.0347 14.3847 20.8171 14.2506 20.6731 14.149C20.5987 14.0965 20.5375 14.048 20.4907 14.0088C20.4672 13.9891 20.4469 13.9714 20.4301 13.9563L20.4073 13.9355L20.3977 13.9266L20.3934 13.9225L20.3914 13.9206L20.3904 13.9197C20.3899 13.9192 20.3894 13.9187 21.4243 12.8329M19.6699 5.08854L20.7157 4.01319L20.7147 4.0122L19.6699 5.08854ZM19.6699 5.08854L20.7158 4.01326M19.6699 5.08854L20.7158 4.01326M7.88084 5.08812L6.83622 4.01166L6.83499 4.01286L7.88084 5.08812ZM7.88084 5.08812L6.83492 4.01292L6.83479 4.01305L6.83434 4.01349L6.83271 4.01508L6.82654 4.02108L6.80293 4.04408L6.71333 4.13158C6.63578 4.20739 6.52392 4.31697 6.38592 4.45273C6.11008 4.72412 5.72917 5.10078 5.30895 5.52186C4.47771 6.35481 3.46121 7.39286 2.80932 8.13012L2.80925 8.1302C1.85327 9.21154 1.53066 10.3022 1.68803 11.2857C1.76108 11.7423 1.92757 12.101 2.08256 12.3519C2.16019 12.4776 2.23666 12.5792 2.30098 12.6564C2.33328 12.6952 2.36295 12.7284 2.38877 12.756C2.4017 12.7698 2.41371 12.7822 2.42466 12.7933L2.44031 12.8089L2.4471 12.8156L2.44718 12.8157L2.44741 12.8159L2.44752 12.816L2.44808 12.8165L2.45032 12.8187L2.45097 12.8193L2.45265 12.821L2.45828 12.8265L2.48742 12.8547C2.51242 12.8789 2.54827 12.9136 2.59265 12.9562C2.68125 13.0413 2.80471 13.159 2.94435 13.2898C3.21326 13.5416 3.57844 13.8761 3.87026 14.1108L3.87091 14.1113C4.72159 14.7946 5.64664 14.7103 6.23886 14.4884C6.51568 14.3847 6.73325 14.2506 6.87726 14.149C6.95163 14.0965 7.0129 14.048 7.05963 14.0088C7.08315 13.9891 7.10342 13.9714 7.12026 13.9563L7.14308 13.9355L7.15262 13.9266L7.15692 13.9225L7.15896 13.9206L7.15995 13.9197C7.16043 13.9192 7.16091 13.9187 6.12604 12.8329M6.12604 12.8329L7.16091 13.9187L7.1714 13.9087L7.18169 13.8986L6.12604 12.8329ZM6.12604 12.8329L7.1817 13.8985L7.18173 13.8985L7.18182 13.8984L7.18215 13.8981L7.18346 13.8968L7.18855 13.8918L7.20839 13.8721L7.28453 13.7966L7.51187 13.5709C7.70746 13.8354 7.86766 14.1321 7.99665 14.4375C8.12936 14.7517 8.21412 15.0408 8.26488 15.2487C8.29 15.3517 8.30608 15.4317 8.31522 15.4814C8.31831 15.4982 8.32058 15.5114 8.32214 15.5207L8.32476 15.5451L8.34265 15.7121C8.35821 15.8578 8.38076 16.0699 8.40863 16.3351C8.46437 16.8655 8.5414 17.6079 8.62646 18.4551C8.79691 20.1528 8.99844 22.2598 9.12626 23.927L9.12626 23.9271C9.28714 26.0235 10.2974 27.2702 11.5102 27.8852C12.4722 28.3731 13.4095 28.3868 13.7744 28.3715C14.1411 28.3871 15.0782 28.3732 16.04 27.8853C17.2528 27.2702 18.2628 26.0233 18.4237 23.9271L18.4237 23.927C18.5505 22.2731 18.7802 20.1766 18.9802 18.4808C19.0799 17.6356 19.1715 16.895 19.2382 16.3659C19.2716 16.1014 19.2987 15.8899 19.3174 15.7447L19.3389 15.5785L19.3445 15.5359L19.3459 15.5253L19.3462 15.5227L19.3463 15.5221L19.3463 15.522L19.3502 15.4923L19.3523 15.4696C19.3524 15.4689 19.3525 15.468 19.3526 15.467C19.3535 15.4594 19.3554 15.443 19.3588 15.4188C19.3656 15.3704 19.378 15.2918 19.3985 15.1906C19.4399 14.9859 19.5118 14.7018 19.6306 14.3937C19.7408 14.108 19.8793 13.8315 20.051 13.5833L20.2658 13.7966L20.342 13.8721L20.3618 13.8918L20.3669 13.8968L20.3682 13.8981L20.3685 13.8984L20.3686 13.8985L20.3687 13.8985L21.4243 12.8329M21.4243 12.8329L20.3687 13.8986L20.379 13.9087L20.3894 13.9187L21.4243 12.8329ZM22.2418 5.52209C23.073 6.3549 24.0894 7.39291 24.7414 8.13048L22.2418 5.52209ZM22.2418 5.52209C21.8216 5.10103 21.4406 4.72439 21.1648 4.45303M22.2418 5.52209L21.1648 4.45303M21.1648 4.45303C21.0268 4.31728 20.9149 4.20771 20.8374 4.1319M21.1648 4.45303L20.8374 4.1319M20.8374 4.1319L20.7478 4.04442M20.8374 4.1319L20.7478 4.04442M20.7478 4.04442L20.7242 4.02142M20.7478 4.04442L20.7242 4.02142M20.7242 4.02142L20.718 4.01542M20.7242 4.02142L20.718 4.01542M20.718 4.01542L20.7164 4.01383M20.718 4.01542L20.7164 4.01383M20.7164 4.01383L20.7159 4.01339M20.7164 4.01383L20.7159 4.01339M20.7159 4.01339L20.7158 4.01326M20.7159 4.01339L20.7158 4.01326M13.7749 7.29919C12.5361 7.28465 11.5461 7.0831 10.8954 6.83052C11.5157 6.5907 12.4617 6.39749 13.6736 6.38309C14.9221 6.39774 15.8883 6.6023 16.5068 6.85208C15.9183 7.0887 14.996 7.28468 13.7749 7.29919Z" stroke="#175CD3" stroke-width="3"/>
</svg>
